<svg width="24" height="24" viewBox="0 0 24 24" fill="none" xmlns="http://www.w3.org/2000/svg">
<path d="M4 4V3C3.44772 3 3 3.44772 3 4H4ZM20 4H21C21 3.44772 20.5523 3 20 3V4ZM4 20H3C3 20.4045 3.24364 20.7691 3.61732 20.9239C3.99099 21.0787 4.42111 20.9931 4.70711 20.7071L4 20ZM8 16V15C7.73478 15 7.48043 15.1054 7.29289 15.2929L8 16ZM20 16V17C20.5523 17 21 16.5523 21 16H20ZM4 5H20V3H4V5ZM5 11V4H3V11H5ZM3 11V16H5V11H3ZM3 16V20H5V16H3ZM4.70711 20.7071L8.70711 16.7071L7.29289 15.2929L3.29289 19.2929L4.70711 20.7071ZM20 15H8V17H20V15ZM19 4V16H21V4H19Z" fill="#222222"/>
<path d="M8 8L16 8" stroke="#222222" stroke-width="2" stroke-linecap="square" stroke-linejoin="round"/>
<path d="M8 12L13 12" stroke="#222222" stroke-width="2" stroke-linecap="square" stroke-linejoin="round"/>
</svg>
